<?xml version="1.0" encoding="utf-8" ?><svg xmlns="http://www.w3.org/2000/svg" xmlns:xlink="http://www.w3.org/1999/xlink" width="374" height="110" viewBox="0 0 374 110"><clipPath id="cl_3"><rect width="374" height="110"/></clipPath><g clip-path="url(#cl_3)"><path fill="#FEFEFE" transform="translate(-114 -273)" d="M297.298 289.313L315.266 289.25C327.733 289.231 339.604 289.087 349.311 298.533C362.051 310.932 362.27 334.669 349.805 347.358C339.95 357.389 327.734 357.466 314.781 357.454L296.853 357.416C296.315 353.545 296.509 343.776 296.551 339.521C296.603 334.11 296.308 325.46 296.828 320.328C302.801 318.243 305.173 316.444 309.403 311.936C309.321 314.308 309.518 317.204 309.541 319.664L309.584 336.515C309.593 339.563 309.765 343.442 309.413 346.367C319.9 346.395 328.527 347.726 337.581 342.143C348.098 333.681 348.919 315.941 339.821 306.294C332.574 298.609 318.678 300.078 308.93 300.188C300.454 321.664 285.561 310.809 277.002 319.025C275.175 320.778 274.058 323.081 273.432 325.511C271.559 332.785 272.51 349.107 272.435 357.36C268.542 357.575 263.804 357.44 259.855 357.387C259.042 340.816 259.735 321.246 259.718 304.522C262.98 304.261 268.087 304.363 271.488 304.324C271.551 307.423 271.966 310.222 271.825 313.363C272.054 312.966 272.292 312.574 272.537 312.187C277.431 304.516 282.693 304.168 290.951 303.143C299.018 302.142 295.4 291.547 297.298 289.313Z"/><path fill="#FEFEFE" transform="translate(-114 -273)" d="M215.998 303.368C224.419 302.724 231.269 304.813 236.555 311.638C236.397 309.443 236.575 306.665 236.654 304.423L248.384 304.366C248.793 311.239 248.557 319.938 248.546 326.971C248.614 337.085 248.596 347.199 248.491 357.313C244.553 357.529 240.295 357.44 236.333 357.39C236.089 355.204 236.109 352.846 236.075 350.635C235.218 351.59 234.19 352.538 233.261 353.436C229.675 356.183 225.87 357.856 221.372 358.433C214.557 359.249 207.698 357.322 202.304 353.077C184.592 339.063 190.627 305.936 215.998 303.368ZM223.027 347.399C243.617 342.945 238.121 311.416 218.749 314.196C203.503 316.264 200.476 335.635 211.475 344.76C214.632 347.378 219.047 347.61 223.027 347.399Z"/><path fill="#FEFEFE" transform="translate(-114 -273)" d="M389.221 303.348C398.649 303.064 403.416 304.206 410.112 311.267C410.213 308.984 410.271 306.699 410.285 304.414C414.186 304.383 418.088 304.388 421.989 304.43C422.526 312.793 422.177 323.587 422.203 332.096C422.224 339.135 422.531 350.655 421.972 357.465L409.901 357.43C409.493 355.089 409.562 352.674 409.743 350.318C408.89 351.316 407.988 352.213 407.07 353.15C403.863 355.912 399.685 357.717 395.513 358.347C388.785 359.303 381.95 357.581 376.476 353.552C370.896 349.377 367.486 342.961 366.487 336.108C364.121 319.879 372.264 305.676 389.221 303.348ZM396.45 347.377C397.745 347.124 399.172 346.869 400.392 346.366C411.835 341.655 412.939 322.831 402.518 316.438C399.308 314.469 396.207 313.944 392.463 314.199C372.523 316.762 374.115 349.074 396.45 347.377Z"/><path fill="#FEFEFE" transform="translate(-114 -273)" d="M170.392 289.255C173.412 289.49 179.995 289.232 183.089 289.083C183.178 296.418 183.679 355.085 182.749 357.064C181.825 357.658 180.933 357.458 179.781 357.406C176.679 357.475 173.575 357.482 170.473 357.427C170.015 352.262 170.207 346.366 170.243 341.132C170.273 336.788 170.149 331.699 170.433 327.415C165.165 327.709 157.861 327.452 152.347 327.473C147.33 327.493 139.232 327.763 134.432 327.379C134.756 336.288 134.69 348.345 134.449 357.287C130.862 357.603 125.386 357.47 121.661 357.443C121.372 352.667 121.539 346.49 121.537 341.616L121.532 313.617C121.532 310.567 121.354 291.137 121.823 289.29C124.564 289.516 131.546 289.221 134.371 289.095C134.647 297.607 134.693 307.941 134.475 316.469L170.314 316.425C169.854 309.216 170.311 296.899 170.392 289.255Z"/><path fill="#FEFEFE" transform="translate(-114 -273)" d="M428.652 304.459C431.352 304.464 439.102 303.918 441.13 304.737C443.306 307.045 452.871 334.985 454.709 339.98C458.081 332.228 460.799 323.817 463.853 315.91C465.334 312.076 466.461 308.22 468.219 304.464C472.226 304.287 477.068 304.409 481.138 304.404C476.885 315.481 472.472 326.496 467.9 337.446C462.756 350.528 457.537 363.582 452.243 376.605C448.225 376.695 443.219 376.403 439.403 376.765C441.691 371.872 443.389 366.3 445.526 361.318C446.426 359.219 447.34 356.723 447.985 354.537C446.707 350.331 444.698 346.306 443.246 342.205C438.878 329.874 432.713 316.803 428.652 304.459Z"/></g></svg>